<svg id="planSvg" viewBox="-2181.42 -18111.54 6089.00 4703.35" preserveAspectRatio="xMidYMid meet" xmlns="http://www.w3.org/2000/svg" width="6089" height="4703">
<style>
#planDetail line{stroke:rgba(87,96,106,0.28);stroke-width:0.8;vector-effect:non-scaling-stroke}
#planWalls line{stroke:rgba(87,96,106,0.7);stroke-width:1.2;vector-effect:non-scaling-stroke}
.proom{stroke:#818b98;stroke-width:1;vector-effect:non-scaling-stroke;fill-opacity:0.72}
#planLabels text{text-anchor:middle;dominant-baseline:central;fill:#1f2328;paint-order:stroke;stroke:#ffffff;stroke-width:0.7px;font-weight:600;font-family:system-ui,'Segoe UI',Arial,sans-serif}

.pbuilding{vector-effect:non-scaling-stroke}
.proom{fill-opacity:0.55}
#planBuildingLabels text.bldg-label{text-anchor:middle;dominant-baseline:central;font-weight:800;font-family:system-ui,'Segoe UI',Arial,sans-serif;paint-order:stroke;stroke:#ffffff;stroke-width:1.2px}
</style>
<g id="planBuildings">
  <polygon class="pbuilding" data-building="A" fill="#3b6fd4" fill-opacity="0.35" stroke="#3b6fd4" stroke-width="3" stroke-opacity="0.9" points="-1098.30,-13704.72 -1077.30,-13704.72 -1077.30,-13838.72 -981.30,-13838.72 -981.30,-13842.72 -668.30,-13842.72 -668.30,-13838.72 -608.30,-13838.72 -608.30,-13842.72 -452.30,-13842.72 -452.30,-13838.72 -392.30,-13838.72 -392.30,-13842.72 -79.30,-13842.72 -79.30,-13838.72 16.70,-13838.72 16.70,-13704.72 37.70,-13704.72 37.70,-13700.72 97.70,-13700.72 97.70,-13704.72 253.70,-13704.72 253.70,-13700.72 313.70,-13700.72 313.70,-13704.72 330.70,-13704.72 330.70,-13721.72 334.70,-13721.72 334.70,-13817.72 330.70,-13817.72 330.70,-14088.72 334.70,-14088.72 334.70,-14148.72 330.70,-14148.72 330.70,-14304.72 334.70,-14304.72 334.70,-14364.72 330.70,-14364.72 330.70,-14635.72 334.70,-14635.72 334.70,-14731.72 330.70,-14731.72 330.70,-14754.22 601.20,-14754.22 601.20,-15503.78 693.75,-15504.09 693.75,-15674.72 601.20,-15674.72 601.20,-16086.22 45.70,-16086.22 45.70,-16128.22 -146.80,-16128.22 -146.80,-16254.22 -913.80,-16254.22 -913.80,-16128.22 -1106.30,-16128.22 -1106.30,-16086.22 -1757.80,-16086.22 -1757.80,-15939.72 -1661.80,-15939.72 -1661.80,-15786.72 -1755.55,-15786.72 -1755.55,-15624.72 -1661.80,-15624.72 -1661.80,-14754.22 -1391.30,-14754.22 -1391.30,-14731.72 -1395.30,-14731.72 -1395.30,-14635.72 -1391.30,-14635.72 -1391.30,-14364.72 -1395.30,-14364.72 -1395.30,-14304.72 -1391.30,-14304.72 -1391.30,-14148.72 -1395.30,-14148.72 -1395.30,-14088.72 -1391.30,-14088.72 -1391.30,-13817.72 -1395.30,-13817.72 -1395.30,-13721.72 -1391.30,-13721.72 -1391.30,-13704.72 -1374.30,-13704.72 -1374.30,-13700.72 -1314.30,-13700.72 -1314.30,-13704.72 -1158.30,-13704.72 -1158.30,-13700.72 -1098.30,-13700.72"/>
</g>
<g id="planBuildingLabels">
  <text class="bldg-label" data-building="A" x="-557.61" y="-14450.29" font-size="170.5" fill="#3b6fd4">A</text>
</g>
<g id="planRooms">
  <polygon class="proom" data-i="S2-3" data-building="A" data-label="S2-3" data-label-x="-1223.80" data-label-y="-14226.72" fill="#3b6fd4" points="-1073.30,-14311.22 -1374.30,-14311.22 -1374.30,-14142.22 -1073.30,-14142.22"/>
  <polygon class="proom" data-i="BRR300" data-building="A" data-label="BRR300" data-label-x="-435.93" data-label-y="-14000.97" fill="#3b6fd4" points="-506.55,-14142.22 -506.55,-13859.72 -365.30,-13859.72 -365.30,-14142.22"/>
  <polygon class="proom" data-i="ELEV1-3" data-building="A" data-label="ELEV1-3" data-label-x="-553.18" data-label-y="-14105.47" fill="#3b6fd4" points="-506.55,-14142.22 -506.55,-14068.72 -599.80,-14068.72 -599.80,-14142.22"/>
  <polygon class="proom" data-i="S3-3" data-building="A" data-label="S3-3" data-label-x="166.70" data-label-y="-14226.72" fill="#3b6fd4" points="19.70,-14142.22 313.70,-14142.22 313.70,-14311.22 19.70,-14311.22"/>
  <polygon class="proom" data-i="GRR300" data-building="A" data-label="GRR300" data-label-x="-518.64" data-label-y="-14425.89" fill="#3b6fd4" points="-495.30,-14372.72 -495.30,-14311.22 -439.80,-14311.22 -439.80,-14593.72 -620.80,-14593.72 -620.80,-14372.72"/>
  <polygon class="proom" data-i="CC300" data-building="A" data-label="CC300" data-label-x="-558.05" data-label-y="-14341.97" fill="#3b6fd4" points="-620.80,-14372.72 -620.80,-14311.22 -495.30,-14311.22 -495.30,-14372.72"/>
  <polygon class="proom" data-i="COR13" data-building="A" data-label="COR13" data-label-x="-526.80" data-label-y="-14226.72" fill="#3b6fd4" points="19.70,-14311.22 19.70,-14142.22 -1073.30,-14142.22 -1073.30,-14311.22"/>
  <polygon class="proom" data-i="300" data-building="A" data-label="300" data-label-x="126.20" data-label-y="-13907.89" fill="#3b6fd4" points="313.70,-14142.22 27.20,-14142.22 27.20,-13859.72 37.70,-13859.72 37.70,-13721.72 313.70,-13721.72"/>
  <polygon class="proom" data-i="302" data-building="A" data-label="302" data-label-x="-169.05" data-label-y="-14000.97" fill="#3b6fd4" points="-365.30,-14142.22 -365.30,-13859.72 27.20,-13859.72 27.20,-14142.22"/>
  <polygon class="proom" data-i="GRPRM300" data-building="A" data-label="GRPRM300" data-label-x="-600.43" data-label-y="-14011.49" fill="#3b6fd4" points="-694.93,-14142.22 -694.93,-13859.72 -506.55,-13859.72 -506.55,-14032.53 -599.80,-14032.53 -599.80,-14142.22"/>
  <polygon class="proom" data-i="306" data-building="A" data-label="306" data-label-x="-1186.80" data-label-y="-13907.89" fill="#3b6fd4" points="-1374.30,-13721.72 -1098.30,-13721.72 -1098.30,-13859.72 -1087.80,-13859.72 -1087.80,-14142.22 -1374.30,-14142.22"/>
  <polygon class="proom" data-i="304" data-building="A" data-label="304" data-label-x="-891.37" data-label-y="-14000.97" fill="#3b6fd4" points="-1087.80,-14142.22 -1087.80,-13859.72 -694.93,-13859.72 -694.93,-14142.22"/>
  <polygon class="proom" data-i="307" data-building="A" data-label="307" data-label-x="-1186.80" data-label-y="-14545.55" fill="#3b6fd4" points="-1087.80,-14593.72 -1098.30,-14593.72 -1098.30,-14731.72 -1374.30,-14731.72 -1374.30,-14311.22 -1087.80,-14311.22"/>
  <polygon class="proom" data-i="305" data-building="A" data-label="305" data-label-x="-852.30" data-label-y="-14455.72" fill="#3b6fd4" points="-1077.30,-14317.72 -1077.30,-14593.72 -627.30,-14593.72 -627.30,-14317.72"/>
  <polygon class="proom" data-i="301" data-building="A" data-label="301" data-label-x="126.20" data-label-y="-14545.55" fill="#3b6fd4" points="27.20,-14593.72 37.70,-14593.72 37.70,-14731.72 313.70,-14731.72 313.70,-14311.22 27.20,-14311.22"/>
  <polygon class="proom" data-i="303" data-building="A" data-label="303" data-label-x="-206.30" data-label-y="-14452.47" fill="#3b6fd4" points="27.20,-14311.22 27.20,-14593.72 -439.80,-14593.72 -439.80,-14311.22"/>
  <polygon class="proom" data-i="CHASE" data-building="A" data-label="CHASE" data-label-x="-553.18" data-label-y="-14050.63" fill="#3b6fd4" points="-599.80,-14068.72 -506.55,-14068.72 -506.55,-14032.53 -599.80,-14032.53"/>
</g>
<g id="planDetail">
<line x1="253.70" y1="-14223.72" x2="253.70" y2="-14148.72"/>
<line x1="242.70" y1="-14223.72" x2="242.70" y2="-14148.72"/>
<line x1="283.97" y1="-14186.22" x2="110.70" y2="-14186.22"/>
<line x1="231.70" y1="-14148.72" x2="231.70" y2="-14223.72"/>
<line x1="220.70" y1="-14148.72" x2="220.70" y2="-14223.72"/>
<line x1="209.70" y1="-14148.72" x2="209.70" y2="-14223.72"/>
<line x1="198.70" y1="-14148.72" x2="198.70" y2="-14223.72"/>
<line x1="187.70" y1="-14148.72" x2="187.70" y2="-14223.72"/>
<line x1="176.70" y1="-14148.72" x2="176.70" y2="-14223.72"/>
<line x1="165.70" y1="-14148.72" x2="165.70" y2="-14223.72"/>
<line x1="154.70" y1="-14148.72" x2="154.70" y2="-14223.72"/>
<line x1="143.70" y1="-14148.72" x2="143.70" y2="-14223.72"/>
<line x1="132.70" y1="-14148.72" x2="132.70" y2="-14223.72"/>
<line x1="209.70" y1="-14229.72" x2="209.70" y2="-14304.72"/>
<line x1="220.70" y1="-14229.72" x2="220.70" y2="-14304.72"/>
<line x1="231.70" y1="-14229.72" x2="231.70" y2="-14304.72"/>
<line x1="242.70" y1="-14229.72" x2="242.70" y2="-14304.72"/>
<line x1="253.70" y1="-14229.72" x2="253.70" y2="-14304.72"/>
<line x1="198.70" y1="-14267.22" x2="283.97" y2="-14267.22"/>
<line x1="283.97" y1="-14267.22" x2="283.97" y2="-14186.22"/>
<line x1="-1344.58" y1="-14267.22" x2="-1344.58" y2="-14186.22"/>
<line x1="-1215.96" y1="-14267.22" x2="-1344.58" y2="-14267.22"/>
<line x1="-1248.30" y1="-14279.96" x2="-1248.30" y2="-14304.72"/>
<line x1="-1248.30" y1="-14229.72" x2="-1248.30" y2="-14279.66"/>
<line x1="-1314.30" y1="-14229.72" x2="-1314.30" y2="-14304.72"/>
<line x1="-1303.30" y1="-14229.72" x2="-1303.30" y2="-14304.72"/>
<line x1="-1292.30" y1="-14229.72" x2="-1292.30" y2="-14304.72"/>
<line x1="-1281.30" y1="-14229.72" x2="-1281.30" y2="-14304.72"/>
<line x1="-1270.30" y1="-14229.72" x2="-1270.30" y2="-14304.72"/>
<line x1="-1259.30" y1="-14229.72" x2="-1259.30" y2="-14304.72"/>
<line x1="-1171.30" y1="-14148.72" x2="-1171.30" y2="-14223.72"/>
<line x1="-1182.30" y1="-14148.72" x2="-1182.30" y2="-14223.72"/>
<line x1="-1193.30" y1="-14229.72" x2="-1193.30" y2="-14304.72"/>
<line x1="-1204.30" y1="-14229.72" x2="-1204.30" y2="-14304.72"/>
<line x1="-1193.30" y1="-14148.72" x2="-1193.30" y2="-14223.72"/>
<line x1="-1204.30" y1="-14148.72" x2="-1204.30" y2="-14223.72"/>
<line x1="-1314.30" y1="-14223.72" x2="-1314.30" y2="-14148.72"/>
<line x1="-1303.30" y1="-14223.72" x2="-1303.30" y2="-14148.72"/>
<line x1="-1344.58" y1="-14186.22" x2="-1171.30" y2="-14186.22"/>
<line x1="-1215.30" y1="-14229.72" x2="-1215.30" y2="-14304.72"/>
<line x1="-1226.30" y1="-14229.72" x2="-1226.30" y2="-14304.72"/>
<line x1="-1237.30" y1="-14229.72" x2="-1237.30" y2="-14304.72"/>
<line x1="-1292.30" y1="-14148.72" x2="-1292.30" y2="-14223.72"/>
<line x1="-1281.30" y1="-14148.72" x2="-1281.30" y2="-14223.72"/>
<line x1="-1270.30" y1="-14148.72" x2="-1270.30" y2="-14223.72"/>
<line x1="-1259.30" y1="-14148.72" x2="-1259.30" y2="-14223.72"/>
<line x1="-1248.30" y1="-14148.72" x2="-1248.30" y2="-14223.72"/>
<line x1="-1237.30" y1="-14148.72" x2="-1237.30" y2="-14223.72"/>
<line x1="-1226.30" y1="-14148.72" x2="-1226.30" y2="-14223.72"/>
<line x1="-1215.30" y1="-14148.72" x2="-1215.30" y2="-14223.72"/>
<line x1="198.70" y1="-14229.72" x2="198.70" y2="-14304.72"/>
<line x1="187.70" y1="-14229.72" x2="187.70" y2="-14304.72"/>
<line x1="176.70" y1="-14229.72" x2="176.70" y2="-14304.72"/>
<line x1="165.70" y1="-14229.72" x2="165.70" y2="-14304.72"/>
<line x1="154.70" y1="-14229.72" x2="154.70" y2="-14304.72"/>
<line x1="113.70" y1="-14229.72" x2="143.70" y2="-14304.72"/>
<line x1="113.70" y1="-14304.72" x2="143.70" y2="-14229.72"/>
<line x1="-377.44" y1="-14107.48" x2="-377.44" y2="-14142.22"/>
<line x1="-377.44" y1="-14142.22" x2="-375.74" y2="-14142.22"/>
<line x1="-375.74" y1="-14142.22" x2="-375.74" y2="-14107.48"/>
<line x1="-375.74" y1="-14107.48" x2="-377.44" y2="-14107.48"/>
<line x1="-437.56" y1="-13861.72" x2="-436.56" y2="-13861.72"/>
<line x1="-437.56" y1="-13861.72" x2="-437.56" y2="-13859.72"/>
<line x1="-436.56" y1="-13861.72" x2="-436.56" y2="-13859.72"/>
<line x1="-542.30" y1="-14590.72" x2="-541.30" y2="-14590.72"/>
<line x1="-541.30" y1="-14593.72" x2="-541.30" y2="-14590.72"/>
<line x1="-542.30" y1="-14593.72" x2="-542.30" y2="-14590.72"/>
<line x1="-542.30" y1="-14530.22" x2="-541.30" y2="-14530.22"/>
<line x1="-438.05" y1="-13922.22" x2="-438.05" y2="-13918.22"/>
<line x1="-438.05" y1="-13918.22" x2="-436.05" y2="-13918.22"/>
<line x1="-436.05" y1="-13918.22" x2="-436.05" y2="-13922.22"/>
<line x1="-436.05" y1="-13922.22" x2="-438.05" y2="-13922.22"/>
<line x1="-396.55" y1="-13996.78" x2="-396.55" y2="-13992.78"/>
<line x1="-396.55" y1="-13992.78" x2="-394.55" y2="-13992.78"/>
<line x1="-394.55" y1="-13992.78" x2="-394.55" y2="-13996.78"/>
<line x1="-394.55" y1="-13996.78" x2="-396.55" y2="-13996.78"/>
<line x1="-396.55" y1="-13959.78" x2="-396.55" y2="-13955.78"/>
<line x1="-396.55" y1="-13955.78" x2="-394.55" y2="-13955.78"/>
<line x1="-394.55" y1="-13955.78" x2="-394.55" y2="-13959.78"/>
<line x1="-394.55" y1="-13959.78" x2="-396.55" y2="-13959.78"/>
<line x1="-377.58" y1="-14032.92" x2="-377.58" y2="-14008.92"/>
<line x1="-377.58" y1="-14008.92" x2="-376.58" y2="-14008.92"/>
<line x1="-376.58" y1="-14008.92" x2="-376.58" y2="-14032.92"/>
<line x1="-376.58" y1="-14032.92" x2="-377.58" y2="-14032.92"/>
<line x1="-377.55" y1="-14038.92" x2="-377.55" y2="-14062.92"/>
<line x1="-377.55" y1="-14062.92" x2="-376.55" y2="-14062.92"/>
<line x1="-376.55" y1="-14062.92" x2="-376.55" y2="-14038.92"/>
<line x1="-376.55" y1="-14038.92" x2="-377.55" y2="-14038.92"/>
<line x1="-542.80" y1="-14535.22" x2="-542.80" y2="-14531.22"/>
<line x1="-542.80" y1="-14531.22" x2="-540.80" y2="-14531.22"/>
<line x1="-540.80" y1="-14531.22" x2="-540.80" y2="-14535.22"/>
<line x1="-540.80" y1="-14535.22" x2="-542.80" y2="-14535.22"/>
<line x1="-542.80" y1="-14498.22" x2="-542.80" y2="-14494.22"/>
<line x1="-542.80" y1="-14494.22" x2="-540.80" y2="-14494.22"/>
<line x1="-540.80" y1="-14494.22" x2="-540.80" y2="-14498.22"/>
<line x1="-540.80" y1="-14498.22" x2="-542.80" y2="-14498.22"/>
<line x1="-601.30" y1="-14408.72" x2="-601.30" y2="-14384.72"/>
<line x1="-601.30" y1="-14384.72" x2="-602.30" y2="-14384.72"/>
<line x1="-602.30" y1="-14408.72" x2="-601.30" y2="-14408.72"/>
<line x1="-601.30" y1="-14438.72" x2="-601.30" y2="-14414.72"/>
<line x1="-601.30" y1="-14414.72" x2="-602.30" y2="-14414.72"/>
<line x1="-602.30" y1="-14438.72" x2="-601.30" y2="-14438.72"/>
<line x1="-400.55" y1="-13859.72" x2="-406.55" y2="-13859.72"/>
<line x1="-406.55" y1="-13859.72" x2="-406.55" y2="-13863.72"/>
<line x1="-406.55" y1="-13863.72" x2="-400.55" y2="-13863.72"/>
<line x1="-400.55" y1="-13863.72" x2="-400.55" y2="-13859.72"/>
<line x1="-566.30" y1="-14375.72" x2="-566.30" y2="-14379.72"/>
<line x1="-566.30" y1="-14379.72" x2="-554.30" y2="-14379.72"/>
<line x1="-554.30" y1="-14379.72" x2="-554.30" y2="-14375.72"/>
<line x1="-554.30" y1="-14375.72" x2="-566.30" y2="-14375.72"/>
<line x1="-578.30" y1="-14593.72" x2="-572.30" y2="-14593.72"/>
<line x1="-572.30" y1="-14593.72" x2="-572.30" y2="-14589.72"/>
<line x1="-572.30" y1="-14589.72" x2="-578.30" y2="-14589.72"/>
<line x1="-578.30" y1="-14589.72" x2="-578.30" y2="-14593.72"/>
<line x1="-588.30" y1="-14589.72" x2="-580.30" y2="-14589.72"/>
<line x1="-580.30" y1="-14589.72" x2="-580.30" y2="-14593.72"/>
<line x1="-580.30" y1="-14593.72" x2="-588.30" y2="-14593.72"/>
<line x1="-588.30" y1="-14593.72" x2="-588.30" y2="-14589.72"/>
<line x1="-578.30" y1="-14532.72" x2="-572.30" y2="-14532.72"/>
<line x1="-572.30" y1="-14532.72" x2="-572.30" y2="-14528.72"/>
<line x1="-572.30" y1="-14528.72" x2="-578.30" y2="-14528.72"/>
<line x1="-578.30" y1="-14528.72" x2="-578.30" y2="-14532.72"/>
<line x1="-588.30" y1="-14528.72" x2="-580.30" y2="-14528.72"/>
<line x1="-580.30" y1="-14528.72" x2="-580.30" y2="-14532.72"/>
<line x1="-580.30" y1="-14532.72" x2="-588.30" y2="-14532.72"/>
<line x1="-588.30" y1="-14532.72" x2="-588.30" y2="-14528.72"/>
<line x1="-542.30" y1="-14493.22" x2="-541.30" y2="-14493.22"/>
<line x1="-542.80" y1="-14461.22" x2="-542.80" y2="-14457.22"/>
<line x1="-542.80" y1="-14457.22" x2="-540.80" y2="-14457.22"/>
<line x1="-540.80" y1="-14457.22" x2="-540.80" y2="-14461.22"/>
<line x1="-540.80" y1="-14461.22" x2="-542.80" y2="-14461.22"/>
<line x1="-578.30" y1="-14495.72" x2="-572.30" y2="-14495.72"/>
<line x1="-572.30" y1="-14495.72" x2="-572.30" y2="-14491.72"/>
<line x1="-572.30" y1="-14491.72" x2="-578.30" y2="-14491.72"/>
<line x1="-578.30" y1="-14491.72" x2="-578.30" y2="-14495.72"/>
<line x1="-588.30" y1="-14491.72" x2="-580.30" y2="-14491.72"/>
<line x1="-580.30" y1="-14491.72" x2="-580.30" y2="-14495.72"/>
<line x1="-580.30" y1="-14495.72" x2="-588.30" y2="-14495.72"/>
<line x1="-588.30" y1="-14495.72" x2="-588.30" y2="-14491.72"/>
</g>
<g id="planWalls">
<line x1="-614.30" y1="-14593.72" x2="-608.30" y2="-14593.72"/>
<line x1="16.70" y1="-13859.72" x2="16.70" y2="-14135.72"/>
<line x1="37.70" y1="-14135.72" x2="57.70" y2="-14135.72"/>
<line x1="313.70" y1="-14135.72" x2="93.70" y2="-14135.72"/>
<line x1="313.70" y1="-14148.72" x2="93.70" y2="-14148.72"/>
<line x1="57.70" y1="-14135.72" x2="57.70" y2="-14148.72"/>
<line x1="37.70" y1="-14317.72" x2="37.70" y2="-14731.72"/>
<line x1="113.70" y1="-14229.72" x2="143.70" y2="-14229.72"/>
<line x1="109.70" y1="-14223.72" x2="255.70" y2="-14223.72"/>
<line x1="-627.30" y1="-14593.72" x2="-627.30" y2="-14317.72"/>
<line x1="-433.30" y1="-14593.72" x2="-433.30" y2="-14317.72"/>
<line x1="-1112.30" y1="-14148.72" x2="-1076.30" y2="-14148.72"/>
<line x1="-1077.30" y1="-14135.72" x2="-1077.30" y2="-13859.72"/>
<line x1="37.70" y1="-14135.72" x2="37.70" y2="-13721.72"/>
<line x1="-446.30" y1="-14317.72" x2="-451.30" y2="-14317.72"/>
<line x1="-981.30" y1="-13842.72" x2="-981.30" y2="-13838.72"/>
<line x1="-668.30" y1="-13842.72" x2="-668.30" y2="-13838.72"/>
<line x1="-608.30" y1="-13842.72" x2="-608.30" y2="-13838.72"/>
<line x1="-452.30" y1="-13842.72" x2="-452.30" y2="-13838.72"/>
<line x1="-392.30" y1="-13842.72" x2="-392.30" y2="-13838.72"/>
<line x1="-79.30" y1="-13842.72" x2="-79.30" y2="-13838.72"/>
<line x1="-668.30" y1="-13838.72" x2="-608.30" y2="-13838.72"/>
<line x1="-452.30" y1="-13838.72" x2="-392.30" y2="-13838.72"/>
<line x1="-1077.30" y1="-13838.72" x2="-1041.30" y2="-13838.72"/>
<line x1="-981.30" y1="-13838.72" x2="-1017.30" y2="-13838.72"/>
<line x1="-1077.30" y1="-13859.72" x2="-1041.30" y2="-13859.72"/>
<line x1="-1041.30" y1="-13838.72" x2="-1041.30" y2="-13859.72"/>
<line x1="-1017.30" y1="-13838.72" x2="-1017.30" y2="-13859.72"/>
<line x1="-981.30" y1="-13842.72" x2="-943.30" y2="-13842.72"/>
<line x1="-1017.30" y1="-13859.72" x2="-943.30" y2="-13859.72"/>
<line x1="-668.30" y1="-13842.72" x2="-711.30" y2="-13842.72"/>
<line x1="-392.30" y1="-13842.72" x2="-355.30" y2="-13842.72"/>
<line x1="-79.30" y1="-13842.72" x2="-123.30" y2="-13842.72"/>
<line x1="-43.30" y1="-13859.72" x2="-123.30" y2="-13859.72"/>
<line x1="-433.30" y1="-14593.72" x2="-355.30" y2="-14593.72"/>
<line x1="-608.30" y1="-14610.72" x2="-608.30" y2="-14614.72"/>
<line x1="-474.30" y1="-14610.72" x2="-452.30" y2="-14610.72"/>
<line x1="-452.30" y1="-14610.72" x2="-452.30" y2="-14614.72"/>
<line x1="-389.30" y1="-14610.72" x2="-355.30" y2="-14610.72"/>
<line x1="-79.30" y1="-14610.72" x2="-123.30" y2="-14610.72"/>
<line x1="-79.30" y1="-13838.72" x2="-43.30" y2="-13838.72"/>
<line x1="16.70" y1="-13838.72" x2="-19.30" y2="-13838.72"/>
<line x1="16.70" y1="-13859.72" x2="-19.30" y2="-13859.72"/>
<line x1="-19.30" y1="-13838.72" x2="-19.30" y2="-13859.72"/>
<line x1="-43.30" y1="-13838.72" x2="-43.30" y2="-13859.72"/>
<line x1="16.70" y1="-13704.72" x2="37.70" y2="-13704.72"/>
<line x1="37.70" y1="-13704.72" x2="37.70" y2="-13700.72"/>
<line x1="97.70" y1="-13704.72" x2="97.70" y2="-13700.72"/>
<line x1="253.70" y1="-13704.72" x2="253.70" y2="-13700.72"/>
<line x1="313.70" y1="-13704.72" x2="313.70" y2="-13700.72"/>
<line x1="37.70" y1="-13700.72" x2="97.70" y2="-13700.72"/>
<line x1="313.70" y1="-13704.72" x2="330.70" y2="-13704.72"/>
<line x1="253.70" y1="-13700.72" x2="313.70" y2="-13700.72"/>
<line x1="37.70" y1="-13842.72" x2="37.70" y2="-14135.72"/>
<line x1="330.70" y1="-13721.72" x2="334.70" y2="-13721.72"/>
<line x1="330.70" y1="-13817.72" x2="334.70" y2="-13817.72"/>
<line x1="330.70" y1="-14088.72" x2="334.70" y2="-14088.72"/>
<line x1="330.70" y1="-14148.72" x2="334.70" y2="-14148.72"/>
<line x1="330.70" y1="-14304.72" x2="334.70" y2="-14304.72"/>
<line x1="330.70" y1="-14364.72" x2="334.70" y2="-14364.72"/>
<line x1="330.70" y1="-14635.72" x2="334.70" y2="-14635.72"/>
<line x1="330.70" y1="-14731.72" x2="334.70" y2="-14731.72"/>
<line x1="334.70" y1="-14731.72" x2="334.70" y2="-14635.72"/>
<line x1="330.70" y1="-13721.72" x2="330.70" y2="-13704.72"/>
<line x1="334.70" y1="-14364.72" x2="334.70" y2="-14304.72"/>
<line x1="334.70" y1="-14148.72" x2="334.70" y2="-14088.72"/>
<line x1="334.70" y1="-13817.72" x2="334.70" y2="-13721.72"/>
<line x1="16.70" y1="-13838.72" x2="16.70" y2="-13704.72"/>
<line x1="16.70" y1="-14731.72" x2="16.70" y2="-14614.72"/>
<line x1="330.70" y1="-13817.72" x2="330.70" y2="-13837.22"/>
<line x1="313.70" y1="-13721.72" x2="313.70" y2="-13837.22"/>
<line x1="330.70" y1="-14088.72" x2="330.70" y2="-14069.22"/>
<line x1="313.70" y1="-14135.72" x2="313.70" y2="-14069.22"/>
<line x1="330.70" y1="-14364.72" x2="330.70" y2="-14384.22"/>
<line x1="313.70" y1="-14317.72" x2="313.70" y2="-14384.22"/>
<line x1="-1374.30" y1="-14317.72" x2="-1374.30" y2="-14384.22"/>
<line x1="-1391.30" y1="-14364.72" x2="-1391.30" y2="-14384.22"/>
<line x1="-1374.30" y1="-14731.72" x2="-1374.30" y2="-14616.22"/>
<line x1="-1391.30" y1="-14635.72" x2="-1391.30" y2="-14616.22"/>
<line x1="-1374.30" y1="-14135.72" x2="-1374.30" y2="-14069.22"/>
<line x1="-1391.30" y1="-14088.72" x2="-1391.30" y2="-14069.22"/>
<line x1="-1374.30" y1="-13721.72" x2="-1374.30" y2="-13837.22"/>
<line x1="-1391.30" y1="-13817.72" x2="-1391.30" y2="-13837.22"/>
<line x1="-1077.30" y1="-13838.72" x2="-1077.30" y2="-13704.72"/>
<line x1="-1395.30" y1="-13817.72" x2="-1395.30" y2="-13721.72"/>
<line x1="-1395.30" y1="-14148.72" x2="-1395.30" y2="-14088.72"/>
<line x1="-1395.30" y1="-14364.72" x2="-1395.30" y2="-14304.72"/>
<line x1="-1391.30" y1="-13721.72" x2="-1391.30" y2="-13704.72"/>
<line x1="-1395.30" y1="-14731.72" x2="-1395.30" y2="-14635.72"/>
<line x1="-1391.30" y1="-14731.72" x2="-1395.30" y2="-14731.72"/>
<line x1="-1391.30" y1="-14635.72" x2="-1395.30" y2="-14635.72"/>
<line x1="-1391.30" y1="-14364.72" x2="-1395.30" y2="-14364.72"/>
<line x1="-1391.30" y1="-14304.72" x2="-1395.30" y2="-14304.72"/>
<line x1="-1391.30" y1="-14148.72" x2="-1395.30" y2="-14148.72"/>
<line x1="-1391.30" y1="-14088.72" x2="-1395.30" y2="-14088.72"/>
<line x1="-1391.30" y1="-13817.72" x2="-1395.30" y2="-13817.72"/>
<line x1="-1391.30" y1="-13721.72" x2="-1395.30" y2="-13721.72"/>
<line x1="-1314.30" y1="-13700.72" x2="-1374.30" y2="-13700.72"/>
<line x1="-1374.30" y1="-13704.72" x2="-1391.30" y2="-13704.72"/>
<line x1="-1098.30" y1="-13700.72" x2="-1158.30" y2="-13700.72"/>
<line x1="-1374.30" y1="-13704.72" x2="-1374.30" y2="-13700.72"/>
<line x1="-1314.30" y1="-13704.72" x2="-1314.30" y2="-13700.72"/>
<line x1="-1158.30" y1="-13704.72" x2="-1158.30" y2="-13700.72"/>
<line x1="-1098.30" y1="-13704.72" x2="-1098.30" y2="-13700.72"/>
<line x1="-1077.30" y1="-13704.72" x2="-1098.30" y2="-13704.72"/>
<line x1="-1098.30" y1="-14135.72" x2="-1098.30" y2="-13721.72"/>
<line x1="-1098.30" y1="-14135.72" x2="-1112.30" y2="-14135.72"/>
<line x1="-1374.30" y1="-14135.72" x2="-1148.30" y2="-14135.72"/>
<line x1="-1374.30" y1="-14148.72" x2="-1148.30" y2="-14148.72"/>
<line x1="-1112.30" y1="-14135.72" x2="-1112.30" y2="-14148.72"/>
<line x1="-1098.30" y1="-14748.72" x2="-1098.30" y2="-14752.72"/>
<line x1="-1081.30" y1="-14748.72" x2="-1098.30" y2="-14748.72"/>
<line x1="-1081.30" y1="-14748.72" x2="-1081.30" y2="-14731.72"/>
<line x1="-1081.30" y1="-14731.72" x2="-1077.30" y2="-14731.72"/>
<line x1="37.70" y1="-14748.72" x2="37.70" y2="-14752.72"/>
<line x1="20.70" y1="-14731.72" x2="20.70" y2="-14748.72"/>
<line x1="20.70" y1="-14731.72" x2="16.70" y2="-14731.72"/>
<line x1="20.70" y1="-14748.72" x2="37.70" y2="-14748.72"/>
<line x1="-508.55" y1="-14070.72" x2="-508.55" y2="-14135.72"/>
<line x1="-698.93" y1="-13859.72" x2="-698.93" y2="-14135.72"/>
<line x1="-690.93" y1="-13859.72" x2="-690.93" y2="-14135.72"/>
<line x1="-601.80" y1="-14066.72" x2="-601.80" y2="-14135.72"/>
<line x1="-508.55" y1="-14066.72" x2="-601.80" y2="-14066.72"/>
<line x1="-508.55" y1="-14070.72" x2="-597.80" y2="-14070.72"/>
<line x1="-597.80" y1="-14070.72" x2="-597.80" y2="-14135.72"/>
<line x1="-504.55" y1="-13859.72" x2="-504.55" y2="-14135.72"/>
<line x1="-508.55" y1="-13859.72" x2="-508.55" y2="-14066.72"/>
<line x1="-367.30" y1="-14087.72" x2="-456.55" y2="-14087.72"/>
<line x1="-367.30" y1="-14087.72" x2="-367.30" y2="-14135.72"/>
<line x1="-367.30" y1="-14083.72" x2="-372.55" y2="-14083.72"/>
<line x1="-376.55" y1="-14083.72" x2="-456.55" y2="-14083.72"/>
<line x1="-372.55" y1="-13859.72" x2="-372.55" y2="-14083.72"/>
<line x1="-367.30" y1="-13859.72" x2="-367.30" y2="-14083.72"/>
<line x1="-376.55" y1="-13859.72" x2="-376.55" y2="-14083.72"/>
<line x1="-363.30" y1="-13859.72" x2="-363.30" y2="-14135.72"/>
<line x1="-411.30" y1="-14148.72" x2="-411.30" y2="-14135.72"/>
<line x1="-375.30" y1="-14148.72" x2="-375.30" y2="-14135.72"/>
<line x1="-558.55" y1="-14135.72" x2="-558.55" y2="-14148.72"/>
<line x1="-516.55" y1="-14135.72" x2="-516.55" y2="-14148.72"/>
<line x1="-670.93" y1="-14148.72" x2="-670.93" y2="-14135.72"/>
<line x1="-634.93" y1="-14148.72" x2="-634.93" y2="-14135.72"/>
<line x1="-487.30" y1="-14304.72" x2="-487.30" y2="-14317.72"/>
<line x1="-451.30" y1="-14304.72" x2="-451.30" y2="-14317.72"/>
<line x1="-498.30" y1="-14369.72" x2="-498.30" y2="-14317.72"/>
<line x1="-492.30" y1="-14369.72" x2="-492.30" y2="-14317.72"/>
<line x1="93.70" y1="-14148.72" x2="93.70" y2="-14135.72"/>
<line x1="-1148.30" y1="-14148.72" x2="-1148.30" y2="-14135.72"/>
<line x1="-650.30" y1="-14614.72" x2="-608.30" y2="-14614.72"/>
<line x1="-608.30" y1="-14610.72" x2="-586.30" y2="-14610.72"/>
<line x1="-452.30" y1="-14614.72" x2="-410.30" y2="-14614.72"/>
<line x1="-608.30" y1="-14593.72" x2="-608.30" y2="-14317.72"/>
<line x1="-602.30" y1="-14317.72" x2="-602.30" y2="-14369.72"/>
<line x1="-1077.30" y1="-14731.72" x2="-1077.30" y2="-14614.72"/>
<line x1="-1098.30" y1="-14317.72" x2="-1098.30" y2="-14731.72"/>
<line x1="-1076.30" y1="-14304.72" x2="-1076.30" y2="-14264.72"/>
<line x1="-1076.30" y1="-14148.72" x2="-1076.30" y2="-14192.72"/>
<line x1="-1070.30" y1="-14148.72" x2="-1070.30" y2="-14192.72"/>
<line x1="-1076.30" y1="-14264.72" x2="-1070.30" y2="-14264.72"/>
<line x1="-1076.30" y1="-14192.72" x2="-1070.30" y2="-14192.72"/>
<line x1="22.70" y1="-14148.72" x2="57.70" y2="-14148.72"/>
<line x1="22.70" y1="-14304.72" x2="22.70" y2="-14264.72"/>
<line x1="22.70" y1="-14148.72" x2="22.70" y2="-14192.72"/>
<line x1="16.70" y1="-14148.72" x2="16.70" y2="-14192.72"/>
<line x1="22.70" y1="-14264.72" x2="16.70" y2="-14264.72"/>
<line x1="22.70" y1="-14192.72" x2="16.70" y2="-14192.72"/>
<line x1="-411.30" y1="-14135.72" x2="-504.55" y2="-14135.72"/>
<line x1="-516.55" y1="-14148.72" x2="-411.30" y2="-14148.72"/>
<line x1="-558.55" y1="-14135.72" x2="-597.80" y2="-14135.72"/>
<line x1="-634.93" y1="-14148.72" x2="-558.55" y2="-14148.72"/>
<line x1="-698.93" y1="-14135.72" x2="-1077.30" y2="-14135.72"/>
<line x1="-601.80" y1="-14135.72" x2="-634.93" y2="-14135.72"/>
<line x1="-508.55" y1="-14135.72" x2="-516.55" y2="-14135.72"/>
<line x1="-367.30" y1="-14135.72" x2="-375.30" y2="-14135.72"/>
<line x1="-698.93" y1="-13859.72" x2="-711.30" y2="-13859.72"/>
<line x1="-372.55" y1="-13859.72" x2="-367.30" y2="-13859.72"/>
<line x1="-363.30" y1="-13859.72" x2="-355.30" y2="-13859.72"/>
<line x1="-487.30" y1="-14317.72" x2="-492.30" y2="-14317.72"/>
<line x1="143.70" y1="-14229.72" x2="143.70" y2="-14304.72"/>
<line x1="109.70" y1="-14229.72" x2="109.70" y2="-14223.72"/>
<line x1="255.70" y1="-14229.72" x2="255.70" y2="-14223.72"/>
<line x1="-1316.30" y1="-14229.72" x2="-1316.30" y2="-14223.72"/>
<line x1="-1177.30" y1="-14229.72" x2="-1316.30" y2="-14229.72"/>
<line x1="-1171.30" y1="-14223.72" x2="-1316.30" y2="-14223.72"/>
<line x1="330.70" y1="-14304.72" x2="330.70" y2="-14294.72"/>
<line x1="330.70" y1="-14148.72" x2="330.70" y2="-14158.72"/>
<line x1="313.70" y1="-14148.72" x2="313.70" y2="-14158.72"/>
<line x1="313.70" y1="-14304.72" x2="313.70" y2="-14294.72"/>
<line x1="-1374.30" y1="-14294.72" x2="-1391.30" y2="-14294.72"/>
<line x1="-456.55" y1="-14083.72" x2="-456.55" y2="-14087.72"/>
<line x1="-943.30" y1="-14610.72" x2="-943.30" y2="-14593.72"/>
<line x1="-711.30" y1="-14593.72" x2="-711.30" y2="-14610.72"/>
<line x1="-981.30" y1="-14610.72" x2="-943.30" y2="-14610.72"/>
<line x1="-903.30" y1="-14610.72" x2="-903.30" y2="-14593.72"/>
<line x1="-903.30" y1="-14593.72" x2="-895.30" y2="-14593.72"/>
<line x1="-903.30" y1="-14610.72" x2="-895.30" y2="-14610.72"/>
<line x1="-895.30" y1="-14593.72" x2="-895.30" y2="-14610.72"/>
<line x1="-855.30" y1="-14593.72" x2="-855.30" y2="-14610.72"/>
<line x1="-855.30" y1="-14610.72" x2="-847.30" y2="-14610.72"/>
<line x1="-855.30" y1="-14593.72" x2="-847.30" y2="-14593.72"/>
<line x1="-847.30" y1="-14610.72" x2="-847.30" y2="-14593.72"/>
<line x1="-807.30" y1="-14610.72" x2="-807.30" y2="-14593.72"/>
<line x1="-807.30" y1="-14593.72" x2="-799.30" y2="-14593.72"/>
<line x1="-807.30" y1="-14610.72" x2="-799.30" y2="-14610.72"/>
<line x1="-799.30" y1="-14593.72" x2="-799.30" y2="-14610.72"/>
<line x1="-759.30" y1="-14593.72" x2="-759.30" y2="-14610.72"/>
<line x1="-671.30" y1="-14610.72" x2="-711.30" y2="-14610.72"/>
<line x1="-759.30" y1="-14610.72" x2="-751.30" y2="-14610.72"/>
<line x1="-627.30" y1="-14593.72" x2="-711.30" y2="-14593.72"/>
<line x1="-759.30" y1="-14593.72" x2="-751.30" y2="-14593.72"/>
<line x1="-751.30" y1="-14610.72" x2="-751.30" y2="-14593.72"/>
<line x1="-163.30" y1="-14610.72" x2="-163.30" y2="-14593.72"/>
<line x1="-171.30" y1="-14593.72" x2="-163.30" y2="-14593.72"/>
<line x1="-171.30" y1="-14610.72" x2="-163.30" y2="-14610.72"/>
<line x1="-171.30" y1="-14593.72" x2="-171.30" y2="-14610.72"/>
<line x1="-211.30" y1="-14593.72" x2="-211.30" y2="-14610.72"/>
<line x1="-219.30" y1="-14610.72" x2="-211.30" y2="-14610.72"/>
<line x1="-219.30" y1="-14593.72" x2="-211.30" y2="-14593.72"/>
<line x1="-219.30" y1="-14610.72" x2="-219.30" y2="-14593.72"/>
<line x1="-259.30" y1="-14610.72" x2="-259.30" y2="-14593.72"/>
<line x1="-267.30" y1="-14593.72" x2="-259.30" y2="-14593.72"/>
<line x1="-267.30" y1="-14610.72" x2="-259.30" y2="-14610.72"/>
<line x1="-267.30" y1="-14593.72" x2="-267.30" y2="-14610.72"/>
<line x1="-307.30" y1="-14593.72" x2="-307.30" y2="-14610.72"/>
<line x1="-315.30" y1="-14610.72" x2="-307.30" y2="-14610.72"/>
<line x1="-315.30" y1="-14593.72" x2="-307.30" y2="-14593.72"/>
<line x1="-315.30" y1="-14610.72" x2="-315.30" y2="-14593.72"/>
<line x1="-123.30" y1="-14593.72" x2="-123.30" y2="-14610.72"/>
<line x1="-355.30" y1="-14610.72" x2="-355.30" y2="-14593.72"/>
<line x1="-751.30" y1="-13859.72" x2="-751.30" y2="-13842.72"/>
<line x1="-759.30" y1="-13842.72" x2="-751.30" y2="-13842.72"/>
<line x1="-759.30" y1="-13859.72" x2="-751.30" y2="-13859.72"/>
<line x1="-759.30" y1="-13842.72" x2="-759.30" y2="-13859.72"/>
<line x1="-799.30" y1="-13842.72" x2="-799.30" y2="-13859.72"/>
<line x1="-807.30" y1="-13859.72" x2="-799.30" y2="-13859.72"/>
<line x1="-807.30" y1="-13842.72" x2="-799.30" y2="-13842.72"/>
<line x1="-807.30" y1="-13859.72" x2="-807.30" y2="-13842.72"/>
<line x1="-847.30" y1="-13859.72" x2="-847.30" y2="-13842.72"/>
<line x1="-855.30" y1="-13842.72" x2="-847.30" y2="-13842.72"/>
<line x1="-855.30" y1="-13859.72" x2="-847.30" y2="-13859.72"/>
<line x1="-855.30" y1="-13842.72" x2="-855.30" y2="-13859.72"/>
<line x1="-895.30" y1="-13842.72" x2="-895.30" y2="-13859.72"/>
<line x1="-903.30" y1="-13859.72" x2="-895.30" y2="-13859.72"/>
<line x1="-903.30" y1="-13842.72" x2="-895.30" y2="-13842.72"/>
<line x1="-903.30" y1="-13859.72" x2="-903.30" y2="-13842.72"/>
<line x1="-711.30" y1="-13842.72" x2="-711.30" y2="-13859.72"/>
<line x1="-943.30" y1="-13859.72" x2="-943.30" y2="-13842.72"/>
<line x1="-355.30" y1="-13859.72" x2="-355.30" y2="-13842.72"/>
<line x1="-123.30" y1="-13842.72" x2="-123.30" y2="-13859.72"/>
<line x1="-315.30" y1="-13859.72" x2="-315.30" y2="-13842.72"/>
<line x1="-315.30" y1="-13842.72" x2="-307.30" y2="-13842.72"/>
<line x1="-315.30" y1="-13859.72" x2="-307.30" y2="-13859.72"/>
<line x1="-307.30" y1="-13842.72" x2="-307.30" y2="-13859.72"/>
<line x1="-267.30" y1="-13842.72" x2="-267.30" y2="-13859.72"/>
<line x1="-267.30" y1="-13859.72" x2="-259.30" y2="-13859.72"/>
<line x1="-267.30" y1="-13842.72" x2="-259.30" y2="-13842.72"/>
<line x1="-259.30" y1="-13859.72" x2="-259.30" y2="-13842.72"/>
<line x1="-219.30" y1="-13859.72" x2="-219.30" y2="-13842.72"/>
<line x1="-219.30" y1="-13842.72" x2="-211.30" y2="-13842.72"/>
<line x1="-219.30" y1="-13859.72" x2="-211.30" y2="-13859.72"/>
<line x1="-211.30" y1="-13842.72" x2="-211.30" y2="-13859.72"/>
<line x1="-171.30" y1="-13842.72" x2="-171.30" y2="-13859.72"/>
<line x1="-171.30" y1="-13859.72" x2="-163.30" y2="-13859.72"/>
<line x1="-171.30" y1="-13842.72" x2="-163.30" y2="-13842.72"/>
<line x1="-163.30" y1="-13859.72" x2="-163.30" y2="-13842.72"/>
<line x1="-502.55" y1="-13842.72" x2="-502.55" y2="-13859.72"/>
<line x1="-510.55" y1="-13842.72" x2="-510.55" y2="-13859.72"/>
<line x1="-502.55" y1="-13842.72" x2="-510.55" y2="-13842.72"/>
<line x1="-502.55" y1="-13859.72" x2="-510.55" y2="-13859.72"/>
<line x1="-452.30" y1="-13842.72" x2="-470.55" y2="-13842.72"/>
<line x1="-376.55" y1="-13859.72" x2="-470.55" y2="-13859.72"/>
<line x1="-470.55" y1="-13842.72" x2="-470.55" y2="-13859.72"/>
<line x1="-542.55" y1="-13842.72" x2="-542.55" y2="-13859.72"/>
<line x1="-550.55" y1="-13842.72" x2="-550.55" y2="-13859.72"/>
<line x1="-690.93" y1="-13859.72" x2="-582.55" y2="-13859.72"/>
<line x1="-542.55" y1="-13859.72" x2="-550.55" y2="-13859.72"/>
<line x1="-608.30" y1="-13842.72" x2="-582.55" y2="-13842.72"/>
<line x1="-542.55" y1="-13842.72" x2="-550.55" y2="-13842.72"/>
<line x1="-582.55" y1="-13859.72" x2="-582.55" y2="-13842.72"/>
<line x1="-614.30" y1="-14593.72" x2="-614.30" y2="-14317.72"/>
<line x1="-446.30" y1="-14593.72" x2="-446.30" y2="-14375.72"/>
<line x1="-608.30" y1="-14317.72" x2="-614.30" y2="-14317.72"/>
<line x1="-446.30" y1="-14369.72" x2="-446.30" y2="-14317.72"/>
<line x1="-446.30" y1="-14375.72" x2="-451.30" y2="-14375.72"/>
<line x1="-602.30" y1="-14375.72" x2="-487.30" y2="-14375.72"/>
<line x1="-446.30" y1="-14369.72" x2="-451.30" y2="-14369.72"/>
<line x1="-492.30" y1="-14369.72" x2="-487.30" y2="-14369.72"/>
<line x1="-451.30" y1="-14375.72" x2="-451.30" y2="-14369.72"/>
<line x1="-487.30" y1="-14375.72" x2="-487.30" y2="-14369.72"/>
<line x1="-474.30" y1="-14593.72" x2="-446.30" y2="-14593.72"/>
<line x1="-671.30" y1="-14711.72" x2="-389.30" y2="-14711.72"/>
<line x1="-650.30" y1="-14690.72" x2="-410.30" y2="-14690.72"/>
<line x1="-671.30" y1="-14610.72" x2="-671.30" y2="-14711.72"/>
<line x1="-650.30" y1="-14614.72" x2="-650.30" y2="-14690.72"/>
<line x1="-410.30" y1="-14614.72" x2="-410.30" y2="-14690.72"/>
<line x1="-389.30" y1="-14610.72" x2="-389.30" y2="-14711.72"/>
<line x1="-602.30" y1="-14593.72" x2="-586.30" y2="-14593.72"/>
<line x1="-1158.30" y1="-14748.72" x2="-1158.30" y2="-14752.72"/>
<line x1="-1314.30" y1="-14748.72" x2="-1314.30" y2="-14752.72"/>
<line x1="-1374.30" y1="-14748.72" x2="-1374.30" y2="-14752.72"/>
<line x1="-1098.30" y1="-14752.72" x2="-1158.30" y2="-14752.72"/>
<line x1="-1374.30" y1="-14748.72" x2="-1391.30" y2="-14748.72"/>
<line x1="-1314.30" y1="-14752.72" x2="-1374.30" y2="-14752.72"/>
<line x1="-1391.30" y1="-14731.72" x2="-1391.30" y2="-14748.72"/>
<line x1="-1077.30" y1="-14614.72" x2="-1077.30" y2="-14731.72"/>
<line x1="330.70" y1="-14731.72" x2="330.70" y2="-14748.72"/>
<line x1="253.70" y1="-14752.72" x2="313.70" y2="-14752.72"/>
<line x1="313.70" y1="-14748.72" x2="330.70" y2="-14748.72"/>
<line x1="37.70" y1="-14752.72" x2="97.70" y2="-14752.72"/>
<line x1="313.70" y1="-14748.72" x2="313.70" y2="-14752.72"/>
<line x1="253.70" y1="-14748.72" x2="253.70" y2="-14752.72"/>
<line x1="97.70" y1="-14748.72" x2="97.70" y2="-14752.72"/>
<line x1="-43.30" y1="-14614.72" x2="-43.30" y2="-14593.72"/>
<line x1="-19.30" y1="-14614.72" x2="-19.30" y2="-14593.72"/>
<line x1="-43.30" y1="-14593.72" x2="-123.30" y2="-14593.72"/>
<line x1="16.70" y1="-14593.72" x2="-19.30" y2="-14593.72"/>
<line x1="16.70" y1="-14614.72" x2="-19.30" y2="-14614.72"/>
<line x1="-79.30" y1="-14614.72" x2="-43.30" y2="-14614.72"/>
<line x1="-1017.30" y1="-14614.72" x2="-1017.30" y2="-14593.72"/>
<line x1="-1041.30" y1="-14614.72" x2="-1041.30" y2="-14593.72"/>
<line x1="-1017.30" y1="-14593.72" x2="-943.30" y2="-14593.72"/>
<line x1="-1077.30" y1="-14593.72" x2="-1041.30" y2="-14593.72"/>
<line x1="-981.30" y1="-14614.72" x2="-1017.30" y2="-14614.72"/>
<line x1="-1077.30" y1="-14614.72" x2="-1041.30" y2="-14614.72"/>
<line x1="-79.30" y1="-14610.72" x2="-79.30" y2="-14614.72"/>
<line x1="-981.30" y1="-14610.72" x2="-981.30" y2="-14614.72"/>
<line x1="-1077.30" y1="-14593.72" x2="-1077.30" y2="-14317.72"/>
<line x1="-1070.30" y1="-14304.72" x2="-1070.30" y2="-14264.72"/>
<line x1="16.70" y1="-14304.72" x2="16.70" y2="-14264.72"/>
<line x1="171.70" y1="-14731.72" x2="171.70" y2="-14748.72"/>
<line x1="179.70" y1="-14731.72" x2="179.70" y2="-14748.72"/>
<line x1="179.70" y1="-14731.72" x2="171.70" y2="-14731.72"/>
<line x1="179.70" y1="-14748.72" x2="171.70" y2="-14748.72"/>
<line x1="37.70" y1="-14731.72" x2="129.70" y2="-14731.72"/>
<line x1="97.70" y1="-14748.72" x2="129.70" y2="-14748.72"/>
<line x1="129.70" y1="-14731.72" x2="129.70" y2="-14748.72"/>
<line x1="313.70" y1="-14731.72" x2="221.70" y2="-14731.72"/>
<line x1="253.70" y1="-14748.72" x2="221.70" y2="-14748.72"/>
<line x1="221.70" y1="-14731.72" x2="221.70" y2="-14748.72"/>
<line x1="-1240.30" y1="-14748.72" x2="-1232.30" y2="-14748.72"/>
<line x1="-1240.30" y1="-14748.72" x2="-1240.30" y2="-14731.72"/>
<line x1="-1232.30" y1="-14748.72" x2="-1232.30" y2="-14731.72"/>
<line x1="-1240.30" y1="-14731.72" x2="-1232.30" y2="-14731.72"/>
<line x1="-1374.30" y1="-14731.72" x2="-1282.30" y2="-14731.72"/>
<line x1="-1314.30" y1="-14748.72" x2="-1282.30" y2="-14748.72"/>
<line x1="-1282.30" y1="-14731.72" x2="-1282.30" y2="-14748.72"/>
<line x1="-1098.30" y1="-14731.72" x2="-1190.30" y2="-14731.72"/>
<line x1="-1158.30" y1="-14748.72" x2="-1190.30" y2="-14748.72"/>
<line x1="-1190.30" y1="-14731.72" x2="-1190.30" y2="-14748.72"/>
<line x1="-1240.30" y1="-13721.72" x2="-1232.30" y2="-13721.72"/>
<line x1="-1240.30" y1="-13721.72" x2="-1240.30" y2="-13704.72"/>
<line x1="-1232.30" y1="-13721.72" x2="-1232.30" y2="-13704.72"/>
<line x1="-1240.30" y1="-13704.72" x2="-1232.30" y2="-13704.72"/>
<line x1="-1374.30" y1="-13721.72" x2="-1282.30" y2="-13721.72"/>
<line x1="-1314.30" y1="-13704.72" x2="-1282.30" y2="-13704.72"/>
<line x1="-1282.30" y1="-13721.72" x2="-1282.30" y2="-13704.72"/>
<line x1="-1098.30" y1="-13721.72" x2="-1190.30" y2="-13721.72"/>
<line x1="-1158.30" y1="-13704.72" x2="-1190.30" y2="-13704.72"/>
<line x1="-1190.30" y1="-13721.72" x2="-1190.30" y2="-13704.72"/>
<line x1="171.70" y1="-13721.72" x2="179.70" y2="-13721.72"/>
<line x1="171.70" y1="-13721.72" x2="171.70" y2="-13704.72"/>
<line x1="179.70" y1="-13721.72" x2="179.70" y2="-13704.72"/>
<line x1="171.70" y1="-13704.72" x2="179.70" y2="-13704.72"/>
<line x1="97.70" y1="-13704.72" x2="129.70" y2="-13704.72"/>
<line x1="37.70" y1="-13721.72" x2="129.70" y2="-13721.72"/>
<line x1="129.70" y1="-13704.72" x2="129.70" y2="-13721.72"/>
<line x1="253.70" y1="-13704.72" x2="221.70" y2="-13704.72"/>
<line x1="313.70" y1="-13721.72" x2="221.70" y2="-13721.72"/>
<line x1="221.70" y1="-13704.72" x2="221.70" y2="-13721.72"/>
<line x1="330.70" y1="-14635.72" x2="330.70" y2="-14616.22"/>
<line x1="313.70" y1="-14731.72" x2="313.70" y2="-14616.22"/>
<line x1="330.70" y1="-14616.22" x2="313.70" y2="-14616.22"/>
<line x1="330.70" y1="-14576.22" x2="313.70" y2="-14576.22"/>
<line x1="330.70" y1="-14568.22" x2="313.70" y2="-14568.22"/>
<line x1="313.70" y1="-14576.22" x2="313.70" y2="-14568.22"/>
<line x1="330.70" y1="-14576.22" x2="330.70" y2="-14568.22"/>
<line x1="313.70" y1="-14568.22" x2="330.70" y2="-14568.22"/>
<line x1="313.70" y1="-14528.22" x2="330.70" y2="-14528.22"/>
<line x1="313.70" y1="-14520.22" x2="330.70" y2="-14520.22"/>
<line x1="330.70" y1="-14528.22" x2="330.70" y2="-14520.22"/>
<line x1="313.70" y1="-14528.22" x2="313.70" y2="-14520.22"/>
<line x1="330.70" y1="-14520.22" x2="313.70" y2="-14520.22"/>
<line x1="330.70" y1="-14480.22" x2="313.70" y2="-14480.22"/>
<line x1="330.70" y1="-14472.22" x2="313.70" y2="-14472.22"/>
<line x1="313.70" y1="-14480.22" x2="313.70" y2="-14472.22"/>
<line x1="330.70" y1="-14480.22" x2="330.70" y2="-14472.22"/>
<line x1="313.70" y1="-14472.22" x2="330.70" y2="-14472.22"/>
<line x1="313.70" y1="-14432.22" x2="330.70" y2="-14432.22"/>
<line x1="313.70" y1="-14424.22" x2="330.70" y2="-14424.22"/>
<line x1="330.70" y1="-14432.22" x2="330.70" y2="-14424.22"/>
<line x1="313.70" y1="-14432.22" x2="313.70" y2="-14424.22"/>
<line x1="330.70" y1="-14424.22" x2="313.70" y2="-14424.22"/>
<line x1="330.70" y1="-14384.22" x2="313.70" y2="-14384.22"/>
<line x1="-1374.30" y1="-14424.22" x2="-1391.30" y2="-14424.22"/>
<line x1="-1391.30" y1="-14432.22" x2="-1391.30" y2="-14424.22"/>
<line x1="-1374.30" y1="-14432.22" x2="-1374.30" y2="-14424.22"/>
<line x1="-1391.30" y1="-14424.22" x2="-1374.30" y2="-14424.22"/>
<line x1="-1391.30" y1="-14432.22" x2="-1374.30" y2="-14432.22"/>
<line x1="-1391.30" y1="-14472.22" x2="-1374.30" y2="-14472.22"/>
<line x1="-1374.30" y1="-14480.22" x2="-1374.30" y2="-14472.22"/>
<line x1="-1391.30" y1="-14480.22" x2="-1391.30" y2="-14472.22"/>
<line x1="-1374.30" y1="-14472.22" x2="-1391.30" y2="-14472.22"/>
<line x1="-1374.30" y1="-14480.22" x2="-1391.30" y2="-14480.22"/>
<line x1="-1374.30" y1="-14520.22" x2="-1391.30" y2="-14520.22"/>
<line x1="-1391.30" y1="-14528.22" x2="-1391.30" y2="-14520.22"/>
<line x1="-1374.30" y1="-14528.22" x2="-1374.30" y2="-14520.22"/>
<line x1="-1391.30" y1="-14520.22" x2="-1374.30" y2="-14520.22"/>
<line x1="-1391.30" y1="-14528.22" x2="-1374.30" y2="-14528.22"/>
<line x1="-1391.30" y1="-14568.22" x2="-1374.30" y2="-14568.22"/>
<line x1="-1374.30" y1="-14576.22" x2="-1374.30" y2="-14568.22"/>
<line x1="-1391.30" y1="-14576.22" x2="-1391.30" y2="-14568.22"/>
<line x1="-1374.30" y1="-14568.22" x2="-1391.30" y2="-14568.22"/>
<line x1="-1374.30" y1="-14576.22" x2="-1391.30" y2="-14576.22"/>
<line x1="-1374.30" y1="-14616.22" x2="-1391.30" y2="-14616.22"/>
<line x1="-1374.30" y1="-14384.22" x2="-1391.30" y2="-14384.22"/>
<line x1="-1374.30" y1="-14029.22" x2="-1391.30" y2="-14029.22"/>
<line x1="-1374.30" y1="-14021.22" x2="-1391.30" y2="-14021.22"/>
<line x1="-1391.30" y1="-14029.22" x2="-1391.30" y2="-14021.22"/>
<line x1="-1374.30" y1="-14029.22" x2="-1374.30" y2="-14021.22"/>
<line x1="-1391.30" y1="-14021.22" x2="-1374.30" y2="-14021.22"/>
<line x1="-1391.30" y1="-13981.22" x2="-1374.30" y2="-13981.22"/>
<line x1="-1391.30" y1="-13973.22" x2="-1374.30" y2="-13973.22"/>
<line x1="-1374.30" y1="-13981.22" x2="-1374.30" y2="-13973.22"/>
<line x1="-1391.30" y1="-13981.22" x2="-1391.30" y2="-13973.22"/>
<line x1="-1374.30" y1="-13973.22" x2="-1391.30" y2="-13973.22"/>
<line x1="-1374.30" y1="-13933.22" x2="-1391.30" y2="-13933.22"/>
<line x1="-1374.30" y1="-13925.22" x2="-1391.30" y2="-13925.22"/>
<line x1="-1391.30" y1="-13933.22" x2="-1391.30" y2="-13925.22"/>
<line x1="-1374.30" y1="-13933.22" x2="-1374.30" y2="-13925.22"/>
<line x1="-1391.30" y1="-13925.22" x2="-1374.30" y2="-13925.22"/>
<line x1="-1391.30" y1="-13885.22" x2="-1374.30" y2="-13885.22"/>
<line x1="-1391.30" y1="-13877.22" x2="-1374.30" y2="-13877.22"/>
<line x1="-1374.30" y1="-13885.22" x2="-1374.30" y2="-13877.22"/>
<line x1="-1391.30" y1="-13885.22" x2="-1391.30" y2="-13877.22"/>
<line x1="-1374.30" y1="-13877.22" x2="-1391.30" y2="-13877.22"/>
<line x1="-1374.30" y1="-14069.22" x2="-1391.30" y2="-14069.22"/>
<line x1="-1374.30" y1="-13837.22" x2="-1391.30" y2="-13837.22"/>
<line x1="330.70" y1="-13837.22" x2="313.70" y2="-13837.22"/>
<line x1="330.70" y1="-13877.22" x2="313.70" y2="-13877.22"/>
<line x1="313.70" y1="-13885.22" x2="313.70" y2="-13877.22"/>
<line x1="330.70" y1="-13885.22" x2="330.70" y2="-13877.22"/>
<line x1="313.70" y1="-13877.22" x2="330.70" y2="-13877.22"/>
<line x1="313.70" y1="-13885.22" x2="330.70" y2="-13885.22"/>
<line x1="313.70" y1="-13925.22" x2="330.70" y2="-13925.22"/>
<line x1="330.70" y1="-13933.22" x2="330.70" y2="-13925.22"/>
<line x1="313.70" y1="-13933.22" x2="313.70" y2="-13925.22"/>
<line x1="330.70" y1="-13925.22" x2="313.70" y2="-13925.22"/>
<line x1="330.70" y1="-13933.22" x2="313.70" y2="-13933.22"/>
<line x1="330.70" y1="-13973.22" x2="313.70" y2="-13973.22"/>
<line x1="313.70" y1="-13981.22" x2="313.70" y2="-13973.22"/>
<line x1="330.70" y1="-13981.22" x2="330.70" y2="-13973.22"/>
<line x1="313.70" y1="-13973.22" x2="330.70" y2="-13973.22"/>
<line x1="313.70" y1="-13981.22" x2="330.70" y2="-13981.22"/>
<line x1="313.70" y1="-14021.22" x2="330.70" y2="-14021.22"/>
<line x1="330.70" y1="-14029.22" x2="330.70" y2="-14021.22"/>
<line x1="313.70" y1="-14029.22" x2="313.70" y2="-14021.22"/>
<line x1="330.70" y1="-14021.22" x2="313.70" y2="-14021.22"/>
<line x1="330.70" y1="-14029.22" x2="313.70" y2="-14029.22"/>
<line x1="330.70" y1="-14069.22" x2="313.70" y2="-14069.22"/>
<line x1="-1171.30" y1="-14223.72" x2="-1171.30" y2="-14304.72"/>
<line x1="-1374.30" y1="-14254.72" x2="-1391.30" y2="-14254.72"/>
<line x1="-1374.30" y1="-14246.72" x2="-1391.30" y2="-14246.72"/>
<line x1="-1391.30" y1="-14254.72" x2="-1391.30" y2="-14246.72"/>
<line x1="-1374.30" y1="-14254.72" x2="-1374.30" y2="-14246.72"/>
<line x1="-1391.30" y1="-14246.72" x2="-1374.30" y2="-14246.72"/>
<line x1="-1391.30" y1="-14206.72" x2="-1374.30" y2="-14206.72"/>
<line x1="-1391.30" y1="-14198.72" x2="-1374.30" y2="-14198.72"/>
<line x1="-1374.30" y1="-14206.72" x2="-1374.30" y2="-14198.72"/>
<line x1="-1391.30" y1="-14206.72" x2="-1391.30" y2="-14198.72"/>
<line x1="-1374.30" y1="-14198.72" x2="-1391.30" y2="-14198.72"/>
<line x1="-1374.30" y1="-14158.72" x2="-1391.30" y2="-14158.72"/>
<line x1="-1391.30" y1="-14294.72" x2="-1391.30" y2="-14304.72"/>
<line x1="-1374.30" y1="-14294.72" x2="-1374.30" y2="-14304.72"/>
<line x1="-1391.30" y1="-14158.72" x2="-1391.30" y2="-14148.72"/>
<line x1="-1374.30" y1="-14158.72" x2="-1374.30" y2="-14148.72"/>
<line x1="-1374.30" y1="-14317.72" x2="-1154.30" y2="-14317.72"/>
<line x1="-1098.30" y1="-14317.72" x2="-1118.30" y2="-14317.72"/>
<line x1="-1374.30" y1="-14304.72" x2="-1177.30" y2="-14304.72"/>
<line x1="-1076.30" y1="-14304.72" x2="-1118.30" y2="-14304.72"/>
<line x1="-1154.30" y1="-14317.72" x2="-1154.30" y2="-14304.72"/>
<line x1="-1118.30" y1="-14317.72" x2="-1118.30" y2="-14304.72"/>
<line x1="330.70" y1="-14158.72" x2="313.70" y2="-14158.72"/>
<line x1="330.70" y1="-14198.72" x2="313.70" y2="-14198.72"/>
<line x1="313.70" y1="-14206.72" x2="313.70" y2="-14198.72"/>
<line x1="330.70" y1="-14206.72" x2="330.70" y2="-14198.72"/>
<line x1="313.70" y1="-14198.72" x2="330.70" y2="-14198.72"/>
<line x1="313.70" y1="-14206.72" x2="330.70" y2="-14206.72"/>
<line x1="313.70" y1="-14246.72" x2="330.70" y2="-14246.72"/>
<line x1="330.70" y1="-14254.72" x2="330.70" y2="-14246.72"/>
<line x1="313.70" y1="-14254.72" x2="313.70" y2="-14246.72"/>
<line x1="330.70" y1="-14246.72" x2="313.70" y2="-14246.72"/>
<line x1="330.70" y1="-14254.72" x2="313.70" y2="-14254.72"/>
<line x1="330.70" y1="-14294.72" x2="313.70" y2="-14294.72"/>
<line x1="313.70" y1="-14304.72" x2="147.70" y2="-14304.72"/>
<line x1="22.70" y1="-14304.72" x2="47.70" y2="-14304.72"/>
<line x1="313.70" y1="-14317.72" x2="83.70" y2="-14317.72"/>
<line x1="37.70" y1="-14317.72" x2="47.70" y2="-14317.72"/>
<line x1="83.70" y1="-14304.72" x2="83.70" y2="-14317.72"/>
<line x1="47.70" y1="-14304.72" x2="47.70" y2="-14317.72"/>
<line x1="109.70" y1="-14229.72" x2="109.70" y2="-14304.72"/>
<line x1="147.70" y1="-14229.72" x2="147.70" y2="-14304.72"/>
<line x1="113.70" y1="-14229.72" x2="113.70" y2="-14304.72"/>
<line x1="109.70" y1="-14304.72" x2="83.70" y2="-14304.72"/>
<line x1="143.70" y1="-14304.72" x2="113.70" y2="-14304.72"/>
<line x1="147.70" y1="-14229.72" x2="255.70" y2="-14229.72"/>
<line x1="16.70" y1="-14135.72" x2="-9.30" y2="-14135.72"/>
<line x1="-363.30" y1="-14135.72" x2="-45.30" y2="-14135.72"/>
<line x1="-375.30" y1="-14148.72" x2="-45.30" y2="-14148.72"/>
<line x1="16.70" y1="-14148.72" x2="-9.30" y2="-14148.72"/>
<line x1="-9.30" y1="-14135.72" x2="-9.30" y2="-14148.72"/>
<line x1="-45.30" y1="-14135.72" x2="-45.30" y2="-14148.72"/>
<line x1="16.70" y1="-14317.72" x2="-19.30" y2="-14317.72"/>
<line x1="-433.30" y1="-14317.72" x2="-55.30" y2="-14317.72"/>
<line x1="16.70" y1="-14304.72" x2="-19.30" y2="-14304.72"/>
<line x1="-451.30" y1="-14304.72" x2="-55.30" y2="-14304.72"/>
<line x1="-19.30" y1="-14317.72" x2="-19.30" y2="-14304.72"/>
<line x1="-55.30" y1="-14317.72" x2="-55.30" y2="-14304.72"/>
<line x1="-627.30" y1="-14317.72" x2="-705.30" y2="-14317.72"/>
<line x1="-1077.30" y1="-14317.72" x2="-741.30" y2="-14317.72"/>
<line x1="-1070.30" y1="-14304.72" x2="-741.30" y2="-14304.72"/>
<line x1="-705.30" y1="-14317.72" x2="-705.30" y2="-14304.72"/>
<line x1="-741.30" y1="-14317.72" x2="-741.30" y2="-14304.72"/>
<line x1="-1070.30" y1="-14148.72" x2="-754.93" y2="-14148.72"/>
<line x1="-670.93" y1="-14148.72" x2="-718.93" y2="-14148.72"/>
<line x1="-670.93" y1="-14135.72" x2="-690.93" y2="-14135.72"/>
<line x1="-698.93" y1="-14135.72" x2="-718.93" y2="-14135.72"/>
<line x1="-718.93" y1="-14148.72" x2="-718.93" y2="-14135.72"/>
<line x1="-754.93" y1="-14148.72" x2="-754.93" y2="-14135.72"/>
<line x1="-598.30" y1="-14304.72" x2="-598.30" y2="-14317.72"/>
<line x1="-498.30" y1="-14369.72" x2="-602.30" y2="-14369.72"/>
<line x1="-487.30" y1="-14304.72" x2="-562.30" y2="-14304.72"/>
<line x1="-705.30" y1="-14304.72" x2="-598.30" y2="-14304.72"/>
<line x1="-498.30" y1="-14317.72" x2="-562.30" y2="-14317.72"/>
<line x1="-602.30" y1="-14317.72" x2="-598.30" y2="-14317.72"/>
<line x1="-562.30" y1="-14304.72" x2="-562.30" y2="-14317.72"/>
<line x1="-602.30" y1="-14375.72" x2="-602.30" y2="-14593.72"/>
<line x1="-698.93" y1="-14135.72" x2="-718.93" y2="-14135.72"/>
<line x1="16.70" y1="-14593.72" x2="16.70" y2="-14317.72"/>
<line x1="-546.30" y1="-14593.72" x2="-546.30" y2="-14610.72"/>
<line x1="-554.30" y1="-14593.72" x2="-554.30" y2="-14610.72"/>
<line x1="-546.30" y1="-14610.72" x2="-554.30" y2="-14610.72"/>
<line x1="-546.30" y1="-14593.72" x2="-554.30" y2="-14593.72"/>
<line x1="-586.30" y1="-14610.72" x2="-586.30" y2="-14593.72"/>
<line x1="-506.30" y1="-14593.72" x2="-506.30" y2="-14610.72"/>
<line x1="-514.30" y1="-14593.72" x2="-514.30" y2="-14610.72"/>
<line x1="-506.30" y1="-14593.72" x2="-514.30" y2="-14593.72"/>
<line x1="-506.30" y1="-14610.72" x2="-514.30" y2="-14610.72"/>
<line x1="-474.30" y1="-14593.72" x2="-474.30" y2="-14610.72"/>
<line x1="-1177.30" y1="-14229.72" x2="-1177.30" y2="-14304.72"/>
<line x1="-1171.30" y1="-14304.72" x2="-1154.30" y2="-14304.72"/>
<line x1="-492.30" y1="-14317.72" x2="-498.30" y2="-14317.72"/>
<line x1="-412.43" y1="-14083.72" x2="-412.43" y2="-14071.92"/>
<line x1="-412.43" y1="-14071.92" x2="-376.55" y2="-14071.92"/>
<line x1="-376.55" y1="-14075.92" x2="-408.43" y2="-14075.92"/>
<line x1="-408.43" y1="-14075.92" x2="-408.43" y2="-14083.72"/>
<line x1="-602.30" y1="-14558.22" x2="-602.30" y2="-14593.72"/>
</g>

</svg>
